<?xml version="1.0" encoding="UTF-8"?>
<!DOCTYPE svg PUBLIC "-//W3C//DTD SVG 1.1//EN" "http://www.w3.org/Graphics/SVG/1.1/DTD/svg11.dtd">
<!-- Creator: CorelDRAW X7 -->
<svg xmlns="http://www.w3.org/2000/svg" xml:space="preserve" width="661.826mm" height="62.7794mm" version="1.1" style="shape-rendering:geometricPrecision; text-rendering:geometricPrecision; image-rendering:optimizeQuality; fill-rule:evenodd; clip-rule:evenodd"
viewBox="0 0 66183 6278"
 xmlns:xlink="http://www.w3.org/1999/xlink">
 <defs>
  <style type="text/css">
   <![CDATA[
    .str0 {stroke:#4D4D4D;stroke-width:85}
    .str1 {stroke:#4D4D4D;stroke-width:120}
    .fil1 {fill:none}
    .fil2 {fill:#4D4D4D}
    .fil5 {fill:#A8A8A8}
    .fil3 {fill:#E8E6E5}
    .fil4 {fill:#F57E29}
    .fil0 {fill:#4D4D4D;fill-rule:nonzero}
   ]]>
  </style>
 </defs>
 <g id="Capa_x0020_1">
  <metadata id="CorelCorpID_0Corel-Layer"/>
  <g id="_305861118448">
   <polygon class="fil0" points="59027,2925 60360,0 60406,0 59066,2942 "/>
   <path class="fil0" d="M66169 766l-869 -766 64 0 819 722 0 28 -14 16zm-2005 -766l-5107 2952 -21 12 -9 -23 -1106 -2941 46 0 1091 2903 5022 -2903 84 0z"/>
   <path class="fil0" d="M64946 0l-702 5996 -43 0 702 -5996 43 0zm-21744 5996l15498 -5996 117 0 -15498 5996 -117 0z"/>
   <line class="fil1" x1="34494" y1="5996" x2="33091" y2= "4692" />
   <polygon class="fil0" points="34463,5996 33077,4707 33106,4676 34525,5996 "/>
   <polygon class="fil0" points="44357,0 40805,5996 40755,5996 44308,0 "/>
   <path class="fil0" d="M49734 5506l1033 490 -99 0 -952 -452 18 -38zm7849 490l800 -611 -327 -296 -3028 485 -13 2 -7 -10 -4208 -5566 53 0 4181 5530 2982 -478 -5561 -5052 63 0 5552 5044 961 -154 3763 -2876 -130 -2014 42 0 128 1983 1210 -924 -617 -1059 49 0 601 1033 1352 -1033 70 0 -1400 1070 1601 2752 479 -77 4 21 0 21 -460 74 460 789 0 42 -19 10 -485 -834 -2696 432 110 1696 -42 0 -109 -1690 -3894 624 -599 458 669 608 -62 0 -641 -582 -762 582 -70 0zm527 -916l307 279 543 -415 -850 136zm1009 -204l3820 -612 -142 -2199 -3678 2811zm3862 -619l2675 -428 -1591 -2733 -1228 938 144 2223z"/>
   <polyline class="fil1" points="33091,4692 49725,5525 49124,5996 "/>
   <polygon class="fil0" points="33092,4671 49726,5504 49782,5507 49738,5541 49159,5996 49090,5996 49668,5543 33090,4713 "/>
   <path class="fil0" d="M60611 0l-8146 5996 -71 0 8146 -5996 71 0zm-14435 5996l-1939 -5996 45 0 1938 5996 -44 0zm788 0l5566 -5996 57 0 -5565 5996 -58 0zm-5347 0l-42 0 323 -5996 42 0 -323 5996zm-4725 -5996l-1717 1977 -78 90 42 -111 742 -1956 45 0 -705 1860 1615 -1860 56 0zm9169 0l74 81 41 -81 48 0 -65 127 -14 27 -21 -22 -120 -132 57 0z"/>
   <path class="fil0" d="M63915 0l2268 2590 0 32 -16 14 -2308 -2636 56 0zm2194 5996l-46 0 100 -243 20 8 0 56 -74 179zm-2034 0l-69 0 2164 -1698 13 17 0 26 -2108 1655zm-827 0l-71 0 -4127 -3033 -1 1 -8 -7 -9310 2588 -37 10 11 -36 1647 -5519 45 0 -1641 5494 9248 -2570 -3284 -2924 63 0 3261 2903 2329 -2903 54 0 -2350 2930 4171 3066zm-27396 0l-48 0 3186 -5935 1 -1 1 -1 45 -59 53 0 -63 83 -3175 5913z"/>
   <polygon class="fil0" points="53088,0 49743,5536 49717,5579 49705,5530 48346,0 48390,0 49733,5470 53038,0 "/>
   <path class="fil0" d="M39842 5996l-854 -5922 -2 -14 12 -7 89 -53 83 0 -138 82 852 5914 -42 0zm19707 -5996l-482 2937 -41 -7 480 -2930 43 0z"/>
   <path class="fil0" d="M39068 0l-31 62 10698 5444 29 15 -26 20 -579 455 -69 0 596 -467 -10687 -5439 -18 -9 9 -19 31 -62 47 0zm16210 5996l-48 0 -204 -394 -174 394 -46 0 199 -451 18 -41 20 39 235 453z"/>
   <polygon class="fil0" points="59048,2913 66183,3528 66183,3549 66181,3570 59045,2955 "/>
   <path class="fil1" d="M38734 5996c-1451,-1560 -3575,-4032 -3575,-4032"/>
   <path class="fil0" d="M38709 5996c-1454,-1560 -3557,-4008 -3566,-4019l32 -27c9,10 2141,2492 3583,4046l-49 0z"/>
   <polygon class="fil0" points="35150,1945 39000,52 39004,50 39009,50 46137,96 46589,0 46792,0 46144,138 46142,138 46140,138 39014,92 35168,1982 "/>
   <polygon class="fil0" points="46186,0 46160,122 46119,113 46143,0 "/>
   <path class="fil0" d="M54248 0l793 5517 3994 -2601 21 -13 10 22 1394 3071 -46 0 -1376 -3031 -4002 2606 -28 18 -4 -33 -798 -5556 42 0zm-4021 5996l-60 0 -437 -437 -244 437 -48 0 269 -481 13 -25 20 20 487 486zm-13518 0l-122 0 -3503 -1284 -27 -10 17 -23 2039 -2689 -9155 965 -5 -42 9204 -970 48 -6 -29 39 -2051 2706 3584 1314z"/>
   <path class="fil0" d="M46092 0l65 106 0 0 3579 5398 5289 28 82 0 -72 40 -782 424 -88 0 777 -422 -5217 -28 -11 0 -7 -10 -3585 -5407 0 -1 -79 -128 49 0zm-1951 5996l-5146 -5908 -150 -88 84 0 30 17 -9 -17 47 0 30 59 5170 5937 -56 0z"/>
   <path class="fil2" d="M49784 5823c165,-32 272,-192 239,-357 -32,-165 -192,-272 -357,-240 -165,33 -272,193 -239,358 32,164 192,272 357,239z"/>
   <path class="fil2" d="M55083 5851c165,-32 272,-192 240,-357 -32,-164 -192,-272 -357,-239 -165,32 -272,192 -240,357 33,165 192,272 357,239z"/>
   <path class="fil2" d="M59105 3232c165,-32 272,-192 240,-357 -32,-165 -192,-272 -357,-240 -165,33 -272,193 -240,357 33,165 193,273 357,240z"/>
   <path class="fil2" d="M39068 370c165,-33 272,-193 239,-357 0,-5 -1,-9 -2,-13l-592 0c-10,41 -11,86 -2,130 32,165 192,272 357,240z"/>
   <polygon class="fil0" points="25936,2925 27310,0 27357,0 25974,2943 "/>
   <polygon class="fil0" points="35145,1980 34162,1156 25960,2954 25942,2958 25936,2941 24830,0 24875,0 25969,2909 34121,1121 32783,0 32849,0 34173,1110 39005,51 39014,92 34214,1144 35173,1947 "/>
   <path class="fil0" d="M34660 0l519 1955 2417 4041 -49 0 -2385 -3986 -1654 3986 -45 0 1674 -4034 -520 -1962 43 0zm4395 5996l7071 -5895 65 -54 -28 70 2795 5879 -47 0 -2770 -5826 -2357 5826 -45 0 2350 -5809 -6968 5809 -66 0zm10514 0l136 -477 2 -8 8 -5 6970 -3796 749 -1710 46 0 -735 1677 3079 -1677 88 0 -3194 1740 -1661 3791 7303 -135 -3326 -2445 -75 -55 92 17 7132 1350 0 21 -4 21 -7045 -1333 3295 2422 3753 -69 1 21 0 21 -3698 69 763 560 -71 0 -761 -559 -7391 137 -33 1 13 -30 1652 -3772 -6914 3766 -130 457 -44 0zm-39398 0l6354 -5996 57 0 -6354 5996 -57 0zm20939 0l702 -5996 43 0 -702 5996 -43 0z"/>
   <path class="fil0" d="M13072 117l2795 5879 -47 0 -2770 -5826 -2357 5826 -46 0 2363 -5841 -9680 3877 1175 1964 -49 0 -1166 -1948 -3282 1314 -8 -20 0 -22 3268 -1309 -1218 -2037 -2 -2 -1 -4 -473 -1968 43 0 470 1955 1221 2040 9733 -3897 46 -19 -15 38zm3405 5879c16,-48 5606,-3371 7117,-4286l749 -1710 46 0 -735 1677 3079 -1677 88 0 -3195 1740 -1662 3795 4448 461 -409 0 -4072 -422 -29 -3 12 -26 1652 -3772 -7045 4223 -44 0zm13313 0l-3848 -3046 -76 -60 94 23 7136 1758 -10 41 -7041 -1735 3812 3019 -67 0z"/>
   <polygon class="fil0" points="11266,0 7713,5996 7664,5996 11217,0 "/>
   <path class="fil0" d="M21914 5545l-4514 451 400 0 4096 -413 18 -38zm4050 451l-744 -675 -3285 253 -12 1 -7 -9 -4208 -5566 53 0 4182 5531 3234 -249 -5814 -5282 63 0 5809 5277 4655 -359 -318 -4918 43 0 317 4915 3124 -242 -2720 -4673 49 0 2725 4681 16 29 -30 3 -3106 1099 12 184 -43 0 -11 -170 -480 170 -127 0 605 -213 -54 -823 -4614 356 749 680 -63 0zm9426 0l1429 -1889 33 25 -1409 1864 -53 0zm3531 -5996l55 0 49 58 -32 27 -72 -85zm-5987 4725l-2999 232 52 811 2947 -1043z"/>
   <polygon class="fil0" points="0,5373 12046,2626 12046,2626 12047,2649 16067,5996 16029,5996 12016,2667 0,5415 0,5395 "/>
   <path class="fil0" d="M16556 3792l-2625 2204 -58 0 2625 -2204 58 0zm7673 2204l10923 -4052 14 39 -10815 4013 -122 0zm-11144 0l-1939 -5996 44 0 1939 5996 -44 0zm-4559 0l-42 0 323 -5996 42 0 -323 5996zm-4726 -5996l-1716 1977 -78 90 42 -111 741 -1956 45 0 -705 1860 1616 -1860 55 0zm8846 0l391 93 48 -93 47 0 -65 127 -7 15 -16 -4 -581 -138 183 0z"/>
   <path class="fil0" d="M31973 0l3197 1946 -22 36 -3256 -1982 81 0zm687 5996l-45 0 435 -1249 -1768 1249 -74 0 1871 -1321 54 -38 -22 62 -451 1297zm-3902 0l-57 0 -2753 -3038 -9281 837 -36 11 11 -37 1619 -3769 44 0 -1612 3755 9219 -821 -3283 -2934 63 0 3261 2903 2329 -2903 54 0 -2353 2933 2775 3063zm-26850 0l-51 0 4043 -5937 1 0 45 -59 53 0 -64 84 -4027 5912z"/>
   <polygon class="fil0" points="19996,0 16668,3725 16642,3769 16629,3719 15255,0 15299,0 16658,3660 19947,0 "/>
   <path class="fil0" d="M6750 5996l-853 -5922 -2 -14 12 -7 89 -53 82 0 -137 82 852 5914 -43 0zm19707 -5996l-481 2937 -41 -7 480 -2930 42 0z"/>
   <path class="fil0" d="M5977 0l-31 62 10658 3707 30 15 -26 21c14,99 -5,11 -52,-13l-10648 -3702 -18 -9 9 -19 31 -62 47 0zm16210 5996l-48 0 -204 -394 -174 394 -46 0 199 -451 18 -41 20 39 235 453z"/>
   <polygon class="fil0" points="25951,2954 13044,138 13053,97 25960,2913 "/>
   <path class="fil1" d="M5643 5996c-1451,-1560 -3575,-4032 -3575,-4032"/>
   <path class="fil0" d="M5617 5996c-1453,-1560 -3556,-4008 -3565,-4019l32 -27c9,10 2141,2492 3583,4046l-50 0z"/>
   <polygon class="fil0" points="2058,1945 5909,52 5913,50 5918,50 13046,96 13498,0 13701,0 13053,138 13051,138 13048,138 5923,92 2077,1982 "/>
   <polygon class="fil0" points="13095,0 13069,122 13028,113 13052,0 "/>
   <path class="fil0" d="M21157 0l792 5517 3995 -2601 20 -13 11 22 1394 3071 -47 0 -1376 -3031 -4001 2606 -28 18 -5 -33 -798 -5556 43 0zm-4021 5996l-40 0 -464 -2177 -237 2177 -48 0 261 -2222 14 -25 20 20 494 2227zm-15372 0l-184 0 -1580 -372 0 -22 5 -21 1759 415zm-1377 -5996l55 0 1642 1950 12 14 -12 13 -2068 2374 -16 -14 0 -32 2040 -2342 -1653 -1963z"/>
   <path class="fil0" d="M13001 0l65 106 0 0 3568 3678 5299 1788 82 -40 -72 40 -781 424 -88 0 777 -422 -5229 -1758 -11 0 -6 -9 -3574 -3678 0 -1 -80 -128 50 0zm-1951 5996l-5145 -5907 -206 -89 107 0 67 29 -14 -29 47 0 29 59 5171 5937 -56 0z"/>
   <path class="fil2" d="M2126 2262c165,-32 273,-192 240,-357 -32,-165 -192,-272 -357,-240 -165,33 -272,192 -240,357 33,165 193,272 357,240z"/>
   <path class="fil2" d="M13107 416c165,-33 272,-193 240,-357 -4,-21 -10,-40 -18,-59l-561 0c-23,54 -30,115 -18,176 32,165 192,272 357,240z"/>
   <path class="fil2" d="M16693 4072c164,-32 272,-192 239,-357 -32,-164 -192,-272 -357,-239 -165,32 -272,192 -240,357 33,165 193,272 358,239z"/>
   <path class="fil2" d="M21992 5851c165,-32 272,-192 240,-357 -33,-164 -193,-272 -357,-239 -165,32 -273,192 -240,357 32,165 192,272 357,239z"/>
   <path class="fil2" d="M26014 3232c165,-32 272,-192 240,-357 -33,-165 -193,-272 -357,-240 -165,33 -273,193 -240,357 32,165 192,273 357,240z"/>
   <path class="fil2" d="M5977 370c164,-33 272,-193 239,-357 -1,-5 -2,-9 -3,-13l-591 0c-10,41 -11,86 -3,130 33,165 193,272 358,240z"/>
   <path class="fil2" d="M46198 416c165,-33 273,-193 240,-357 -4,-21 -10,-40 -18,-59l-561 0c-22,54 -30,115 -18,176 33,165 193,272 357,240z"/>
   <path class="fil2" d="M35218 2262c165,-32 272,-192 239,-357 -32,-165 -192,-272 -357,-240 -165,33 -272,192 -239,357 32,165 192,272 357,240z"/>
   <path class="fil2" d="M33150 4990c165,-32 272,-192 240,-357 -33,-165 -193,-272 -357,-240 -165,33 -273,193 -240,358 32,164 192,272 357,239z"/>
  </g>
  <line class="fil1 str0" x1="0" y1="5996" x2="66183" y2= "5996" />
  <line class="fil1 str1" x1="0" y1="6218" x2="66183" y2= "6218" />
  <g id="_305861144528">
   <path class="fil3" d="M5393 1584l329 0 24 0 4 0 0 4 0 24 0 1953 0 8 0 1 -1 1 -5 7 -26 32 0 0 -23 29 0 0 -24 30 0 0 -26 32 -7 9 -2 2 -1 0 -12 0 -230 0 -25 0 -3 0 0 -4 0 -24 0 -810 -2123 0 0 810 0 24 0 4 -3 0 -25 0 -329 0 -24 0 -4 0 0 -4 0 -24 0 -2076 0 -24 0 -4 4 0 24 0 329 0 25 0 3 0 0 4 0 24 0 881 2123 0 0 -881 0 -24 0 -4 3 0 25 0zm4073 873l0 359c0,82 -11,162 -30,238 -20,78 -50,152 -88,220 -36,65 -80,124 -129,177 -49,51 -103,96 -162,134l288 288 18 18 2 2 -2 3 -18 17 -231 232 0 0 -18 17 -2 3 -3 -3 -17 -17 -429 -429 -1319 0 -11 0 -1 0 -2 -2 -7 -8 -108 -127 -373 89 -25 6 -4 1 -1 -4 -4 -26 -12 -73 -1 -3 0 -1 0 0 1 -3 27 -248 4 -33 0 -5 5 2 30 14c15,6 30,12 45,17 15,5 31,9 46,12 15,4 31,6 46,8 15,1 31,2 46,2l1236 0 -262 -262 -18 -17 -2 -3 2 -3 18 -17 231 -232 18 -17 2 -3 3 3 17 17 500 500c43,-18 84,-42 121,-73 37,-31 71,-68 99,-110 30,-44 53,-92 69,-144 15,-49 23,-102 23,-157l0 -359c0,-65 -13,-128 -37,-185 -25,-60 -61,-114 -106,-159 -45,-45 -99,-82 -159,-106 -57,-24 -120,-38 -186,-38l-1714 0c-66,0 -129,14 -187,37 -59,25 -113,62 -158,107 -45,45 -82,99 -106,158 -24,58 -37,121 -37,186l0 116 0 5 0 1 -1 0 -2 5c-17,38 -36,78 -57,118 -21,40 -43,82 -67,124 -24,42 -50,86 -78,130 -27,44 -56,89 -86,135l-28 42 -4 6 -3 -7 -15 -47c-8,-22 -14,-44 -20,-66 -5,-23 -10,-45 -13,-67 -4,-23 -7,-46 -9,-68 -2,-23 -3,-45 -3,-68l0 -359c0,-117 24,-229 67,-332 44,-107 110,-203 190,-284 81,-81 177,-146 284,-190 103,-43 215,-67 333,-67l1714 0c117,0 229,24 331,67 107,44 203,109 283,190 80,81 145,177 190,284 42,103 66,215 66,332z"/>
   <path class="fil4" d="M6577 2264c45,0 112,124 202,373l-100 941 12 73 399 -93 131 155c0,90 -181,170 -542,216 -46,101 -69,249 -69,442l0 101 -101 102 -137 0 -35 -135 70 -477 -102 0c-347,92 -630,137 -850,137l-34 -35 0 -135c608,-709 960,-1264 1053,-1665l103 0zm-647 1517c341,0 502,-109 510,-238l34 -565c-384,475 -577,734 -577,803l33 0z"/>
   <path class="fil5" d="M2105 4554c0,-115 -89,-188 -250,-188 -153,0 -253,60 -253,188l0 215c0,132 132,178 252,178 60,0 117,-6 165,-34l53 40 40 -31 -53 -40c28,-28 46,-65 46,-113l0 -215zm-60 215c0,33 -13,60 -29,80l-116 -87 -41 30 114 87c-34,18 -77,22 -119,22 -90,0 -192,-32 -192,-132l0 -215c0,-96 75,-143 193,-143 124,0 190,55 190,143l0 215zm758 -389l0 389c0,100 -100,132 -191,132 -90,0 -192,-32 -192,-132l0 -389 -60 0 0 389c0,132 132,178 252,178 121,0 250,-46 250,-178l0 -389 -59 0zm643 301l-201 0 102 -210 99 210zm184 257l-263 -558 -43 0 -261 558 63 0 96 -211 244 0 101 211 63 0zm247 -558l0 558 379 0 0 -44 -319 0 0 -514 -60 0zm686 558l0 -558 -60 0 0 558 60 0zm507 0l0 -514 205 0 0 -44 -464 0 0 44 198 0 0 514 61 0zm760 0l0 -283 247 -275 -73 0 -204 227 -205 -227 -72 0 248 277 0 281 59 0zm1462 -257l149 0 0 88c0,100 -100,132 -191,132 -90,0 -192,-32 -192,-132l0 -215c0,-96 75,-143 193,-143 74,0 131,25 169,66l49 -25c-47,-55 -122,-86 -218,-86 -153,0 -253,60 -253,188l0 215c0,132 132,178 252,178 66,0 141,-18 191,-53l0 44 59 0 0 -301 -208 0 0 44zm455 257l60 0 0 -257 138 0 223 257 73 0 -132 -150c-31,-36 -63,-71 -94,-107l9 0c129,0 201,-53 201,-154 0,-79 -71,-147 -199,-147l-279 0 0 558zm60 -301l0 -213 219 0c91,0 139,47 139,103 0,71 -49,110 -141,110l-217 0zm1125 132c0,100 -101,132 -191,132 -90,0 -193,-32 -193,-132l0 -215c0,-96 76,-143 194,-143 123,0 190,55 190,143l0 215zm58 -215c0,-115 -87,-188 -248,-188 -153,0 -254,60 -254,188l0 215c0,132 133,178 253,178 120,0 249,-46 249,-178l0 -215zm691 -174l0 389c0,100 -100,132 -191,132 -90,0 -192,-32 -192,-132l0 -389 -60 0 0 389c0,132 133,178 252,178 121,0 250,-46 250,-178l0 -389 -59 0zm307 558l58 0 0 -257 218 0c130,0 201,-53 201,-154 0,-79 -70,-147 -199,-147l-278 0 0 558zm58 -301l0 -213 220 0c90,0 138,47 138,103 0,71 -48,110 -140,110l-218 0z"/>
  </g>
 </g>
</svg>
