<?xml version="1.0" encoding="UTF-8"?>
<!DOCTYPE svg PUBLIC "-//W3C//DTD SVG 1.1//EN" "http://www.w3.org/Graphics/SVG/1.1/DTD/svg11.dtd">
<!-- Creator: CorelDRAW X7 -->
<svg xmlns="http://www.w3.org/2000/svg" xml:space="preserve" width="661.826mm" height="116.767mm" version="1.1" style="shape-rendering:geometricPrecision; text-rendering:geometricPrecision; image-rendering:optimizeQuality; fill-rule:evenodd; clip-rule:evenodd"
viewBox="0 0 63773 11252"
 xmlns:xlink="http://www.w3.org/1999/xlink">
 <defs>
  <style type="text/css">
   <![CDATA[
    .str0 {stroke:#575656;stroke-width:40.7889}
    .fil1 {fill:none}
    .fil2 {fill:#575656}
    .fil0 {fill:#575656;fill-rule:nonzero}
   ]]>
  </style>
 </defs>
 <g id="Capa_x0020_1">
  <metadata id="CorelCorpID_0Corel-Layer"/>
  <g id="_509054370144">
   <polygon class="fil0" points="56878,2818 58162,0 58207,0 56915,2835 "/>
   <path class="fil0" d="M63760 738l-837 -738 61 0 789 695 0 27 -13 16zm-1932 -738l-4921 2845 -21 12 -8 -23 -1065 -2834 43 0 1052 2797 4839 -2797 81 0z"/>
   <path class="fil0" d="M62582 0l-822 7021 2007 -574 6 19 0 22 -2019 577 -488 4169 -40 -5 486 -4152 -2558 731 -3 1 -3 0 -20564 -811 -98 -4 91 -35 17986 -6959 113 0 -17993 6962 20463 806 2571 -735 824 -7033 41 0zm1191 9523l0 27 -1869 1696 -28 -30 1883 -1708 14 15z"/>
   <line class="fil1 str0" x1="39099" y1="11231" x2="31887" y2= "4521" />
   <polygon class="fil0" points="42742,0 38617,6962 51471,8855 51530,8864 51478,8893 47328,11249 47308,11214 51407,8887 38582,6998 38552,6994 38567,6968 42695,0 "/>
   <polyline class="fil1 str0" points="43871,11231 45671,9348 38585,6978 "/>
   <path class="fil0" d="M47923 5305l5045 2398 3289 -2514 -314 -285 -2919 467 -12 2 -7 -10 -4055 -5363 51 0 4029 5329 2874 -460 -5359 -4869 61 0 5350 4860 926 -148 3625 -2771 -125 -1941 41 0 123 1911 1166 -891 -594 -1020 47 0 580 995 1302 -995 67 0 -1349 1031 1544 2651 461 -73 3 20 0 20 -443 71 443 761 0 40 -18 10 -468 -804 -2597 416 170 2631 2909 -644 4 20 0 20 -2910 645 99 1540 2811 911 0 21 -6 20 -2802 -908 183 2831 -41 3 -184 -2848 -1733 -562 1752 3399 -36 19 -1766 -3425 -2910 1437 4122 1960 -17 37 -4152 -1974 -3993 1974 -18 -37 3965 -1959 -1998 -949 -2667 590 -89 20 73 -56 1476 -1128 -5026 -2389 17 -37zm15850 4218l0 27 -1869 1696 -28 -30 1883 -1708 14 15zm-10764 -1800l1134 539 4419 -979 -2274 -2066 -3279 2506zm1194 567l1980 941 2930 -1447 -514 -468 -4396 974zm-124 -14l-1106 -525 -1419 1085 2525 -560zm1915 -3381l296 269 524 -400 -820 131zm327 297l2290 2080 2209 -489 -170 -2633 -3751 600 -578 442zm2327 2114l511 465 1762 570 -98 -1517 -2175 482zm-1681 -2608l3680 -589 -136 -2119 -3544 2708zm3721 -596l2577 -413 -1532 -2633 -1184 904 139 2142z"/>
   <path class="fil1 str0" d="M31887 4521l16028 803 -7523 5907m-3820 0l-4685 -726"/>
   <path class="fil0" d="M58405 0l-12722 9365 -23 17 -9 -27 -946 -2925 -4469 4815 -30 -28 4485 -4832 -2064 -6385 43 0 2053 6351 5894 -6351 56 0 -5936 6395 944 2920 12655 -9315 69 0zm-17992 0l-604 11232 -41 -2 604 -11230 41 0zm-4864 0l-1655 1905 -75 87 41 -107 714 -1885 44 0 -680 1793 1557 -1793 54 0zm8835 0l71 78 40 -78 46 0 -63 122 -13 26 -20 -21 -116 -127 55 0z"/>
   <path class="fil0" d="M61588 0l2185 2496 0 31 -15 13 -2224 -2540 54 0zm-2397 0l-2265 2823 4397 3232 2437 -1914 13 16 0 26 -2416 1897 1671 1229 726 -1765 19 7 0 54 -711 1729 711 523 0 25 -12 16 -715 -525 -1589 3866 -38 -15 1594 -3876 -1689 -1241 -2163 1698 -4 3 -5 1 -7681 1086 -1 1 -5795 472 -4676 1882 -15 -38 4679 -1882 3 -2 3 0 5797 -473 7675 -1086 2149 -1687 -4389 -3227 -2 1 -7 -7 -8972 2494 -35 10 10 -35 1588 -5318 42 0 -1580 5294 8911 -2477 -3165 -2817 61 0 3142 2797 2245 -2797 52 0zm-21524 0l-61 80 -5598 10427 2204 705 -12 39 -2228 -713 -23 -7 12 -22 5610 -10450 1 -1 1 -2 43 -56 51 0z"/>
   <polygon class="fil0" points="51155,0 47932,5334 47907,5376 47895,5329 46586,0 46628,0 47923,5271 51107,0 "/>
   <path class="fil0" d="M31969 10501l6593 -3534 -993 -6895 -2 -14 11 -7 86 -51 80 0 -133 79 994 6896 2 14 -13 7 -6606 3541 -19 -36zm25412 -10501l-464 2830 -40 -6 462 -2824 42 0z"/>
   <path class="fil0" d="M37646 0l-30 60 10308 5246 28 14 -25 20 -7523 5907 -25 -32 7498 -5888 -10297 -5240 -18 -9 9 -18 30 -60 45 0zm7857 11230l147 -1883 2 -25 24 7 3978 1206 1797 -1672 1552 -3520 17 -39 19 38 3044 5880 -37 19 -3023 -5843 -1536 3485 -2 4 -3 3 -1783 1659 2187 663 -12 39 -2210 -670 -715 665 -28 -30 698 -649 -3930 -1192 -145 1858 -41 -3z"/>
   <polygon class="fil0" points="56899,2807 63773,3400 63773,3420 63771,3440 56895,2847 "/>
   <line class="fil1 str0" x1="38585" y1="6978" x2="35991" y2= "11231" />
   <path class="fil1 str0" d="M39668 11231c-236,-1225 -853,-4298 -1083,-4253 -288,57 -4706,-5086 -4706,-5086"/>
   <polygon class="fil0" points="33870,1874 37580,50 37584,48 37589,48 44458,93 44893,0 45089,0 44464,133 44462,133 44460,133 37594,89 33888,1910 "/>
   <polygon class="fil0" points="44505,0 44480,117 44440,109 44463,0 "/>
   <path class="fil0" d="M52273 0l764 5316 3849 -2506 20 -13 9 22 2252 4961 4 9 -4 8 -1604 3443 -37 -17 1600 -3435 -2238 -4931 -3856 2511 -26 17 -5 -31 -769 -5354 41 0zm2463 11248l-3280 -2356 -1 -1 -1 -1 -3535 -3533 -2231 4001 -8 15 -16 -5 -7086 -2371 -1 0 -6697 -2457 -26 -9 16 -22 1964 -2592 -8822 930 -4 -40 8869 -935 47 -5 -29 37 -1976 2607 6672 2448 0 0 7070 2365 2236 -4010 13 -24 19 19 3552 3551 3279 2355 -24 33z"/>
   <polygon class="fil0" points="44414,0 44477,102 44477,102 47926,5303 53021,5331 53100,5331 53031,5369 45680,9366 45666,9374 45655,9362 37576,85 37430,0 37511,0 37540,17 37532,0 37577,0 37606,57 45675,9323 52942,5371 47915,5344 47904,5344 47898,5335 44443,124 44443,124 44366,0 "/>
   <path class="fil2" d="M47971 5611c159,-31 263,-185 231,-344 -31,-159 -185,-262 -344,-231 -159,31 -262,185 -231,344 31,159 185,262 344,231z"/>
   <path class="fil2" d="M38641 7266c159,-32 262,-186 231,-345 -31,-158 -185,-262 -344,-231 -159,32 -262,186 -231,345 31,158 185,262 344,231z"/>
   <path class="fil2" d="M45727 9636c159,-31 262,-185 231,-344 -31,-159 -185,-262 -344,-231 -159,31 -262,185 -231,344 31,159 185,262 344,231z"/>
   <path class="fil2" d="M59205 8076c159,-31 263,-185 231,-344 -31,-159 -185,-262 -344,-231 -159,31 -262,185 -231,344 32,159 186,262 344,231z"/>
   <path class="fil2" d="M53078 5638c159,-31 262,-185 231,-344 -31,-158 -186,-262 -344,-231 -159,32 -263,186 -231,345 31,158 185,262 344,230z"/>
   <path class="fil2" d="M56954 3114c158,-31 262,-185 230,-344 -31,-159 -185,-262 -344,-231 -159,32 -262,186 -231,345 32,158 186,262 345,230z"/>
   <path class="fil2" d="M51525 9163c158,-31 262,-186 231,-344 -32,-159 -186,-263 -345,-231 -158,31 -262,185 -231,344 32,159 186,262 345,231z"/>
   <path class="fil2" d="M37645 356c159,-31 263,-185 231,-344 0,-4 -1,-8 -2,-12l-570 0c-10,40 -11,82 -3,125 32,159 186,263 344,231z"/>
   <polygon class="fil0" points="24992,2818 26316,0 26361,0 25029,2836 "/>
   <polygon class="fil0" points="33866,1908 32918,1114 25015,2847 24998,2851 24991,2834 23926,0 23970,0 25023,2803 32879,1081 31589,0 31653,0 32929,1070 37585,49 37593,89 32969,1103 33892,1876 "/>
   <path class="fil0" d="M33399 0l499 1884 2797 4676 7752 -6463 62 -51 -27 66 3062 6440 351 -1234 2 -8 8 -4 6716 -3658 722 -1648 44 0 -708 1616 2967 -1616 85 0 -3078 1677 -1600 3653 7037 -131 -3205 -2356 -72 -53 88 17 6872 1301 0 21 -4 19 -6788 -1284 3176 2334 3616 -67 0 20 0 20 -3562 67 3562 2619 0 25 -12 16 -3617 -2659 -7122 132 -32 1 13 -29 1591 -3634 -6662 3628 -362 1271 2194 4615 -37 17 -2174 -4573 -1302 4570 -39 -11 1315 -4615 -3066 -6447 -4480 11075 -38 -15 4468 -11043 -7695 6414 2767 4626 -34 21 -2764 -4620 -3343 2787 882 1813 -36 18 -879 -1804 -1317 1098 -26 -31 1325 -1105 -1352 -2778 -1917 4619 -37 -16 1930 -4652 -39 -80 -2008 574 -488 4169 -41 -5 486 -4152 -2557 731 -3 1 -4 0 -20564 -811 -98 -4 92 -35 17986 -6959 113 0 -17993 6962 20463 806 2571 -735 823 -7033 41 0 -822 7021 2008 -574 16 -5 8 15 31 64 1922 -4630 -502 -1891 43 0zm30374 10561l0 21 -11892 670 -2 -41 11893 -670 1 20zm-31813 -3991l1363 2801 3341 -2785 -2782 -4649 -1922 4633z"/>
   <path class="fil0" d="M12596 112l3061 6440 352 -1234 2 -8 7 -4 6717 -3658 721 -1648 45 0 -708 1616 2967 -1616 85 0 -3079 1677 -1601 3657 8031 833 -4198 -3324 -73 -58 90 22 6876 1694 -9 40 -6786 -1672 4175 3306 2618 271 -5 41 -2554 -265 3999 3166 -25 31 -4049 -3205 -8122 -843 -28 -3 11 -25 1592 -3634 -6663 3628 -361 1271 2193 4615 -36 17 -2174 -4573 -1302 4570 -39 -11 1314 -4615 -3065 -6447 -4481 11075 -37 -15 4480 -11074 -9329 3735 4389 7336 -35 21 -4392 -7342 -3162 1267 -8 -19 0 -22 3149 -1261 -1174 -1962 -2 -3 0 -3 -456 -1897 41 0 453 1884 1176 1966 9379 -3756 44 -18 -14 36zm-12596 6916l0 -42 18 -10 2319 4246 -35 19 -2302 -4213zm31888 3554l-9025 670 -3 -41 9025 -670 3 41z"/>
   <polygon class="fil0" points="7200,11248 0,5873 0,5848 12,5831 7225,11215 "/>
   <polygon class="fil0" points="10856,0 6731,6962 19584,8855 19643,8864 19592,8893 15442,11249 15422,11214 19520,8887 6695,6998 6665,6994 6680,6968 10808,0 "/>
   <polyline class="fil1 str0" points="11984,11231 13784,9348 6698,6978 "/>
   <path class="fil0" d="M16037 5305l5792 2753 4102 -1451 -1629 -1480 -3166 244 -11 1 -7 -9 -4054 -5363 51 0 4029 5330 3117 -241 -5602 -5089 60 0 5597 5085 4486 -346 -306 -4739 40 0 306 4736 3011 -233 -2621 -4503 47 0 2625 4511 16 28 -29 2 -2993 1059 209 3233 1867 1081 4504 -5956 33 24 -4501 5952 979 567 -21 35 -983 -569 -965 1277 -33 -25 962 -1272 -1839 -1065 151 2348 -40 3 -154 -2376 -1755 -1016 1744 3381 -36 19 -1767 -3425 -2910 1437 4123 1960 -18 37 -4151 -1974 -3993 1974 -18 -37 3964 -1959 -2423 -1152 -2239 792 -13 -38 2200 -778 -5756 -2736 18 -37zm21467 -5305l53 0 47 56 -31 26 -69 -82zm-15623 8083l2415 1148 2931 -1447 -1262 -1146 -4084 1445zm2477 -2960l1617 1468 2880 -1019 -51 -793 -4446 344zm1651 1499l1265 1150 1790 1036 -206 -3194 -2849 1008zm5726 -2069l-2890 223 50 782 2840 -1005z"/>
   <path class="fil0" d="M0 5177l16028 126 58 1 -45 36 -7523 5907 -25 -32 7477 -5871 -15970 -126 0 -20 0 -21zm0 5348l0 -20 3 -21 4686 727 -6 40 -4683 -726z"/>
   <path class="fil0" d="M18786 0l-5935 6395 946 2927 20075 -7449 14 38 -20095 7457 -20 7 -6 -20 -946 -2925 -4470 4815 -29 -28 4485 -4832 -2065 -6385 43 0 2053 6351 5895 -6351 55 0zm-10259 0l-605 11232 -40 -2 604 -11230 41 0zm-4865 0l-1654 1905 -75 87 40 -107 715 -1885 43 0 -679 1793 1556 -1793 54 0zm8524 0l377 89 46 -89 45 0 -62 122 -8 15 -15 -4 -559 -133 176 0z"/>
   <path class="fil0" d="M30809 0l3081 1875 -22 34 -3137 -1909 78 0zm-3505 0l-2267 2826 3596 3969 3242 -2291 52 -36 -21 60 -1479 4248 1567 1729 -31 27 -1551 -1712 -841 2418 -38 -13 848 -2439 -1754 -1937 -1353 956 -4 3 -5 1 -7681 1086 -1 1 -5794 472 -4677 1882 -15 -38 4679 -1882 3 -2 3 0 5798 -473 7675 -1086 1344 -950 -3595 -3969 -8970 2493 -36 10 11 -35 1587 -5318 43 0 -1581 5294 8911 -2477 -3164 -2817 61 0 3142 2797 2244 -2797 52 0zm-21523 0l-62 81 -5702 8373 -17 -12 0 -36 5686 -8349 0 -1 44 -56 51 0zm-5781 11038l0 -23 10 -18 389 216 -19 36 -380 -211zm28660 -4212l1736 1916 1451 -4168 -3187 2252z"/>
   <polygon class="fil0" points="19268,0 16046,5334 16020,5376 16008,5329 14700,0 14742,0 16036,5271 19221,0 "/>
   <path class="fil0" d="M0 9755l6676 -2790 -994 -6893 -2 -14 12 -7 86 -51 79 0 -133 79 994 6896 2 16 -14 6 -6698 2799 -8 -19 0 -22zm25494 -9755l-464 2830 -40 -6 463 -2824 41 0z"/>
   <path class="fil0" d="M5760 0l-30 60 10307 5246 29 14 -25 20 -7523 5907 -25 -32 7497 -5888 -10297 -5240 -18 -9 9 -18 30 -60 46 0zm7857 11230l147 -1883 2 -25 24 7 3977 1206 1798 -1672 1551 -3520 17 -39 20 38 3043 5880 -36 19 -3024 -5843 -1536 3485 -1 4 -4 3 -1783 1659 2187 663 -11 39 -2210 -670 -716 665 -27 -30 698 -649 -3931 -1192 -145 1858 -40 -3z"/>
   <polygon class="fil0" points="25006,2847 12569,133 12578,93 25015,2807 "/>
   <line class="fil1 str0" x1="6698" y1="6978" x2="4104" y2= "11231" />
   <path class="fil1 str0" d="M7781 11231c-236,-1225 -853,-4298 -1083,-4253 -288,57 -4706,-5086 -4706,-5086"/>
   <polygon class="fil0" points="1984,1874 5693,50 5698,48 5702,48 12571,93 13007,0 13202,0 12578,133 12576,133 12573,133 5707,89 2001,1910 "/>
   <polygon class="fil0" points="12618,0 12593,117 12553,109 12577,0 "/>
   <path class="fil0" d="M20387 0l763 5316 3849 -2506 20 -13 10 22 2252 4961 4 9 -4 8 -1604 3443 -37 -17 1600 -3435 -2238 -4931 -3856 2511 -27 17 -4 -31 -769 -5354 41 0zm-20014 0l53 0 1582 1879 11 13 -11 13 -1993 2288 -15 -14 0 -31 1966 -2256 -1593 -1892zm-373 5419l0 -21 5 -20 6698 1580 0 0 1 1 7070 2365 2236 -4010 14 -24 19 19 3552 3551 3278 2355 -23 33 -3280 -2356 -2 -1 -1 -1 -3534 -3533 -2231 4001 -8 15 -16 -5 -7085 -2370 -6693 -1579z"/>
   <polygon class="fil0" points="12528,0 12590,102 12590,102 16039,5303 21135,5331 21214,5331 21144,5369 13794,9366 13779,9374 13769,9362 5690,86 5491,0 5594,0 5659,28 5645,0 5691,0 5719,57 13789,9323 21056,5371 16028,5344 16017,5344 16011,5335 12556,124 12556,124 12480,0 "/>
   <path class="fil2" d="M2049 2180c159,-32 262,-186 231,-345 -31,-158 -185,-262 -344,-230 -159,31 -262,185 -231,344 31,158 185,262 344,231z"/>
   <path class="fil2" d="M12630 401c159,-32 262,-186 231,-345 -4,-19 -10,-38 -17,-56l-541 0c-22,52 -29,110 -17,170 31,158 185,262 344,231z"/>
   <path class="fil2" d="M16085 5611c159,-31 262,-185 231,-344 -32,-159 -186,-262 -344,-231 -159,31 -263,185 -231,344 31,159 185,262 344,231z"/>
   <path class="fil2" d="M6755 7266c158,-32 262,-186 231,-345 -32,-158 -186,-262 -345,-231 -158,32 -262,186 -231,345 32,158 186,262 345,231z"/>
   <path class="fil2" d="M13841 9636c158,-31 262,-185 230,-344 -31,-159 -185,-262 -344,-231 -158,31 -262,185 -231,344 32,159 186,262 345,231z"/>
   <path class="fil2" d="M27319 8076c159,-31 262,-185 231,-344 -31,-159 -185,-262 -344,-231 -159,31 -263,185 -231,344 31,159 185,262 344,231z"/>
   <path class="fil2" d="M21191 5638c159,-31 263,-185 231,-344 -31,-158 -185,-262 -344,-231 -159,32 -262,186 -231,345 31,158 186,262 344,230z"/>
   <path class="fil2" d="M25067 3114c159,-31 262,-185 231,-344 -31,-159 -185,-262 -344,-231 -159,32 -262,186 -231,345 31,158 185,262 344,230z"/>
   <path class="fil2" d="M19638 9163c159,-31 262,-186 231,-344 -31,-159 -185,-263 -344,-231 -159,31 -262,185 -231,344 31,159 185,262 344,231z"/>
   <path class="fil2" d="M5759 356c159,-31 262,-185 231,-344 -1,-4 -2,-8 -3,-12l-570 0c-9,40 -11,82 -2,125 31,159 185,263 344,231z"/>
   <path class="fil2" d="M44517 401c158,-32 262,-186 230,-345 -3,-19 -9,-38 -17,-56l-540 0c-22,52 -29,110 -18,170 32,158 186,262 345,231z"/>
   <path class="fil2" d="M33936 2180c158,-32 262,-186 231,-345 -32,-158 -186,-262 -345,-230 -158,31 -262,185 -231,344 32,158 186,262 345,231z"/>
   <path class="fil2" d="M31943 4809c159,-32 262,-186 231,-345 -31,-158 -185,-262 -344,-231 -159,32 -262,186 -231,345 31,158 185,262 344,231z"/>
   <path class="fil2" d="M32035 10806c159,-31 262,-185 231,-344 -31,-159 -185,-262 -344,-231 -159,32 -262,186 -231,344 31,159 185,263 344,231z"/>
  </g>
 </g>
</svg>
