<?xml version="1.0" encoding="UTF-8"?>
<!DOCTYPE svg PUBLIC "-//W3C//DTD SVG 1.1//EN" "http://www.w3.org/Graphics/SVG/1.1/DTD/svg11.dtd">
<!-- Creator: CorelDRAW X7 -->
<svg xmlns="http://www.w3.org/2000/svg" xml:space="preserve" width="116.336mm" height="52.6348mm" version="1.1" style="shape-rendering:geometricPrecision; text-rendering:geometricPrecision; image-rendering:optimizeQuality; fill-rule:evenodd; clip-rule:evenodd"
viewBox="0 0 8297 3754"
 xmlns:xlink="http://www.w3.org/1999/xlink">
 <defs>
  <style type="text/css">
   <![CDATA[
    .fil0 {fill:#E9E6E5}
    .fil1 {fill:#F58434}
   ]]>
  </style>
 </defs>
 <g id="Capa_x0020_1">
  <metadata id="CorelCorpID_0Corel-Layer"/>
  <g id="_508972241424">
   <path class="fil0" d="M3183 0l414 0 30 0 5 0 0 5 0 30 0 2452 0 10 0 2 -1 1 -7 9 -32 40 0 0 -29 36 0 0 -30 38 0 0 -33 40 -9 11 -2 2 -2 0 -14 0 -290 0 -30 0 -5 0 0 -5 0 -30 0 -1016 -2664 0 0 1016 0 30 0 5 -5 0 -31 0 -413 0 -30 0 -5 0 0 -5 0 -30 0 -2606 0 -30 0 -5 5 0 30 0 413 0 31 0 5 0 0 5 0 30 0 1106 2664 0 0 -1106 0 -30 0 -5 5 0 30 0zm5114 1096l0 451c0,103 -13,203 -37,298 -25,98 -63,191 -111,277 -45,81 -100,155 -162,221 -61,65 -129,122 -203,169l362 362 22 22 3 3 -3 4 -22 21 -291 291 0 0 -21 22 -4 3 -3 -3 -22 -22 -539 -539 -1655 0 -14 0 -2 0 -1 -1 -9 -11 -136 -160 -469 112 -31 8 -5 1 -1 -5 -5 -32 -15 -92 -1 -4 0 -1 0 0 0 -4 35 -311 4 -41 1 -7 6 3 38 17c18,8 37,15 56,21 19,6 39,12 58,16 19,4 39,7 58,9 19,2 38,3 57,3l1552 0 -329 -329 -22 -22 -3 -3 3 -3 22 -22 291 -291 22 -22 3 -3 3 3 22 22 627 627c54,-22 106,-53 152,-91 47,-39 90,-86 125,-139 37,-54 66,-115 86,-180 19,-62 29,-129 29,-197l0 -451c0,-82 -16,-161 -46,-233 -31,-75 -77,-143 -134,-199 -56,-57 -124,-103 -199,-134 -72,-30 -151,-46 -233,-46l-2153 0c-83,0 -162,16 -234,46 -75,31 -142,77 -199,134 -57,56 -102,124 -133,199 -30,72 -47,151 -47,233l0 145 0 6 0 1 0 1 -3 6c-22,48 -46,98 -72,148 -26,51 -54,103 -84,156 -30,53 -63,108 -97,163 -35,56 -71,113 -109,170l-35 52 -5 8 -3 -9 -20 -59c-9,-27 -17,-55 -24,-83 -7,-28 -13,-56 -17,-84 -5,-29 -9,-57 -11,-85 -2,-28 -4,-57 -4,-85l0 -451c0,-147 30,-288 84,-417 56,-134 138,-255 239,-357 101,-101 222,-183 356,-239 129,-53 270,-83 418,-83l2153 0c147,0 287,30 416,83 133,56 253,138 354,240 101,101 183,222 238,356 54,129 83,270 83,417z"/>
   <path class="fil1" d="M4670 853c56,0 142,157 254,468l-126 1182 15 91 502 -116 164 195c0,113 -227,213 -681,271 -58,127 -87,312 -87,555l0 127 -126 128 -172 0 -44 -170 88 -598 -128 0c-436,115 -791,172 -1067,172l-43 -44 0 -170c764,-890 1205,-1588 1323,-2091l128 0zm-812 1905c429,0 630,-136 640,-298l44 -710c-483,596 -725,922 -725,1008l41 0z"/>
  </g>
 </g>
</svg>
